<mxfile host="65bd71144e">
    <diagram name="Page-1" id="nJ8AabLm08wDrzyYBw-v">
        <mxGraphModel dx="2582" dy="1378" grid="1" gridSize="10" guides="1" tooltips="1" connect="1" arrows="1" fold="1" page="1" pageScale="1" pageWidth="850" pageHeight="1100" math="0" shadow="0">
            <root>
                <mxCell id="0"/>
                <mxCell id="1" parent="0"/>
                <mxCell id="wmMBdpZO4Sj8BBKznp7j-1" value="" style="whiteSpace=wrap;html=1;aspect=fixed;" parent="1" vertex="1">
                    <mxGeometry x="-2080" y="-90" width="3900" height="3900" as="geometry"/>
                </mxCell>
                <mxCell id="wmMBdpZO4Sj8BBKznp7j-2" value="&lt;span style=&quot;font-size: 26px;&quot;&gt;Sequence diagramme :update password&lt;br&gt;&lt;/span&gt;" style="rounded=1;whiteSpace=wrap;html=1;fillColor=#dae8fc;strokeColor=#6c8ebf;" parent="1" vertex="1">
                    <mxGeometry x="-310" y="-50" width="640" height="60" as="geometry"/>
                </mxCell>
                <mxCell id="wmMBdpZO4Sj8BBKznp7j-3" value="" style="shape=umlLifeline;perimeter=lifelinePerimeter;whiteSpace=wrap;html=1;container=1;dropTarget=0;collapsible=0;recursiveResize=0;outlineConnect=0;portConstraint=eastwest;newEdgeStyle={&quot;edgeStyle&quot;:&quot;elbowEdgeStyle&quot;,&quot;elbow&quot;:&quot;vertical&quot;,&quot;curved&quot;:0,&quot;rounded&quot;:0};participant=umlActor;fontSize=26;size=40;" parent="1" vertex="1">
                    <mxGeometry x="-890" y="65" width="20" height="375" as="geometry"/>
                </mxCell>
                <mxCell id="wmMBdpZO4Sj8BBKznp7j-4" value="&lt;font style=&quot;font-size: 19px;&quot;&gt;Middleware:auth&lt;/font&gt;" style="shape=umlLifeline;perimeter=lifelinePerimeter;whiteSpace=wrap;html=1;container=1;dropTarget=0;collapsible=0;recursiveResize=0;outlineConnect=0;portConstraint=eastwest;newEdgeStyle={&quot;edgeStyle&quot;:&quot;elbowEdgeStyle&quot;,&quot;elbow&quot;:&quot;vertical&quot;,&quot;curved&quot;:0,&quot;rounded&quot;:0};fontSize=26;size=30;fillColor=#e1d5e7;strokeColor=#9673a6;" parent="1" vertex="1">
                    <mxGeometry x="-540" y="80" width="240" height="370" as="geometry"/>
                </mxCell>
                <mxCell id="wmMBdpZO4Sj8BBKznp7j-39" value="" style="html=1;points=[];perimeter=orthogonalPerimeter;outlineConnect=0;targetShapes=umlLifeline;portConstraint=eastwest;newEdgeStyle={&quot;edgeStyle&quot;:&quot;elbowEdgeStyle&quot;,&quot;elbow&quot;:&quot;vertical&quot;,&quot;curved&quot;:0,&quot;rounded&quot;:0};fontSize=8;" parent="wmMBdpZO4Sj8BBKznp7j-4" vertex="1">
                    <mxGeometry x="115" y="70" width="10" height="110" as="geometry"/>
                </mxCell>
                <mxCell id="wmMBdpZO4Sj8BBKznp7j-9" value="user" style="rounded=0;whiteSpace=wrap;html=1;fontSize=11;fillColor=#60a917;fontColor=#ffffff;strokeColor=#2D7600;" parent="1" vertex="1">
                    <mxGeometry x="-903" y="110" width="50" height="10" as="geometry"/>
                </mxCell>
                <mxCell id="wmMBdpZO4Sj8BBKznp7j-10" value="&lt;font style=&quot;font-size: 19px;&quot;&gt;Model:User&amp;nbsp;&lt;/font&gt;" style="shape=umlLifeline;perimeter=lifelinePerimeter;whiteSpace=wrap;html=1;container=1;dropTarget=0;collapsible=0;recursiveResize=0;outlineConnect=0;portConstraint=eastwest;newEdgeStyle={&quot;edgeStyle&quot;:&quot;elbowEdgeStyle&quot;,&quot;elbow&quot;:&quot;vertical&quot;,&quot;curved&quot;:0,&quot;rounded&quot;:0};fontSize=26;size=30;fillColor=#e1d5e7;strokeColor=#9673a6;" parent="1" vertex="1">
                    <mxGeometry x="30" y="80" width="180" height="370" as="geometry"/>
                </mxCell>
                <mxCell id="wmMBdpZO4Sj8BBKznp7j-11" value="&lt;font style=&quot;font-size: 19px;&quot;&gt;:UserController&amp;nbsp;&lt;/font&gt;" style="shape=umlLifeline;perimeter=lifelinePerimeter;whiteSpace=wrap;html=1;container=1;dropTarget=0;collapsible=0;recursiveResize=0;outlineConnect=0;portConstraint=eastwest;newEdgeStyle={&quot;edgeStyle&quot;:&quot;elbowEdgeStyle&quot;,&quot;elbow&quot;:&quot;vertical&quot;,&quot;curved&quot;:0,&quot;rounded&quot;:0};fontSize=26;size=30;fillColor=#e1d5e7;strokeColor=#9673a6;" parent="1" vertex="1">
                    <mxGeometry x="-237" y="80" width="180" height="370" as="geometry"/>
                </mxCell>
                <mxCell id="wmMBdpZO4Sj8BBKznp7j-12" value="&lt;font style=&quot;font-size: 19px;&quot;&gt;db:users&amp;nbsp;&lt;/font&gt;" style="shape=umlLifeline;perimeter=lifelinePerimeter;whiteSpace=wrap;html=1;container=1;dropTarget=0;collapsible=0;recursiveResize=0;outlineConnect=0;portConstraint=eastwest;newEdgeStyle={&quot;edgeStyle&quot;:&quot;elbowEdgeStyle&quot;,&quot;elbow&quot;:&quot;vertical&quot;,&quot;curved&quot;:0,&quot;rounded&quot;:0};fontSize=26;size=30;fillColor=#e1d5e7;strokeColor=#9673a6;" parent="1" vertex="1">
                    <mxGeometry x="320" y="80" width="180" height="370" as="geometry"/>
                </mxCell>
                <mxCell id="wmMBdpZO4Sj8BBKznp7j-42" value="" style="html=1;points=[];perimeter=orthogonalPerimeter;outlineConnect=0;targetShapes=umlLifeline;portConstraint=eastwest;newEdgeStyle={&quot;edgeStyle&quot;:&quot;elbowEdgeStyle&quot;,&quot;elbow&quot;:&quot;vertical&quot;,&quot;curved&quot;:0,&quot;rounded&quot;:0};fontSize=8;" parent="wmMBdpZO4Sj8BBKznp7j-12" vertex="1">
                    <mxGeometry x="85" y="243" width="10" height="77" as="geometry"/>
                </mxCell>
                <mxCell id="wmMBdpZO4Sj8BBKznp7j-13" value="&lt;font style=&quot;font-size: 19px;&quot;&gt;route:updatePassword&amp;nbsp;&lt;/font&gt;" style="shape=umlLifeline;perimeter=lifelinePerimeter;whiteSpace=wrap;html=1;container=1;dropTarget=0;collapsible=0;recursiveResize=0;outlineConnect=0;portConstraint=eastwest;newEdgeStyle={&quot;edgeStyle&quot;:&quot;elbowEdgeStyle&quot;,&quot;elbow&quot;:&quot;vertical&quot;,&quot;curved&quot;:0,&quot;rounded&quot;:0};fontSize=26;size=20;fillColor=#e1d5e7;strokeColor=#9673a6;" parent="1" vertex="1">
                    <mxGeometry x="-796" y="80" width="210" height="360" as="geometry"/>
                </mxCell>
                <mxCell id="wmMBdpZO4Sj8BBKznp7j-16" value="&lt;font size=&quot;1&quot;&gt;send request&lt;/font&gt;" style="html=1;verticalAlign=bottom;endArrow=block;elbow=vertical;rounded=0;fontSize=19;" parent="1" target="wmMBdpZO4Sj8BBKznp7j-43" edge="1">
                    <mxGeometry width="80" relative="1" as="geometry">
                        <mxPoint x="-879.9651162790697" y="147" as="sourcePoint"/>
                        <mxPoint x="-690.5" y="147" as="targetPoint"/>
                    </mxGeometry>
                </mxCell>
                <mxCell id="wmMBdpZO4Sj8BBKznp7j-17" value="&lt;font size=&quot;1&quot;&gt;revoke middleware&lt;/font&gt;" style="html=1;verticalAlign=bottom;endArrow=block;elbow=vertical;rounded=0;fontSize=19;" parent="1" edge="1">
                    <mxGeometry width="80" relative="1" as="geometry">
                        <mxPoint x="-689.9951162790696" y="160" as="sourcePoint"/>
                        <mxPoint x="-430" y="160" as="targetPoint"/>
                    </mxGeometry>
                </mxCell>
                <mxCell id="wmMBdpZO4Sj8BBKznp7j-18" value="&lt;font size=&quot;1&quot;&gt;send request&amp;nbsp;&lt;/font&gt;" style="html=1;verticalAlign=bottom;endArrow=block;elbow=vertical;rounded=0;fontSize=19;" parent="1" edge="1">
                    <mxGeometry width="80" relative="1" as="geometry">
                        <mxPoint x="-412" y="247" as="sourcePoint"/>
                        <mxPoint x="-152" y="247" as="targetPoint"/>
                    </mxGeometry>
                </mxCell>
                <mxCell id="wmMBdpZO4Sj8BBKznp7j-19" value="alt" style="shape=umlFrame;whiteSpace=wrap;html=1;pointerEvents=0;fontSize=18;fillColor=#f8cecc;strokeColor=#b85450;" parent="1" vertex="1">
                    <mxGeometry x="-1030" y="170" width="1570" height="260" as="geometry"/>
                </mxCell>
                <mxCell id="wmMBdpZO4Sj8BBKznp7j-20" value="" style="endArrow=none;dashed=1;html=1;rounded=0;fontSize=18;entryX=1;entryY=0.192;entryDx=0;entryDy=0;entryPerimeter=0;" parent="1" target="wmMBdpZO4Sj8BBKznp7j-19" edge="1">
                    <mxGeometry width="50" height="50" relative="1" as="geometry">
                        <mxPoint x="-1030" y="220" as="sourcePoint"/>
                        <mxPoint x="-500" y="220" as="targetPoint"/>
                    </mxGeometry>
                </mxCell>
                <mxCell id="wmMBdpZO4Sj8BBKznp7j-21" value="false" style="text;html=1;strokeColor=none;fillColor=none;align=center;verticalAlign=middle;whiteSpace=wrap;rounded=0;fontSize=18;" parent="1" vertex="1">
                    <mxGeometry x="-970" y="180" width="60" height="30" as="geometry"/>
                </mxCell>
                <mxCell id="wmMBdpZO4Sj8BBKznp7j-22" value="&lt;font style=&quot;font-size: 13px;&quot;&gt;error unothentified&lt;/font&gt;" style="html=1;verticalAlign=bottom;endArrow=open;dashed=1;endSize=8;edgeStyle=elbowEdgeStyle;elbow=vertical;curved=0;rounded=0;fontSize=18;" parent="1" edge="1">
                    <mxGeometry relative="1" as="geometry">
                        <mxPoint x="-430" y="197" as="sourcePoint"/>
                        <mxPoint x="-870" y="197" as="targetPoint"/>
                    </mxGeometry>
                </mxCell>
                <mxCell id="wmMBdpZO4Sj8BBKznp7j-23" value="true" style="text;html=1;strokeColor=none;fillColor=none;align=center;verticalAlign=middle;whiteSpace=wrap;rounded=0;fontSize=18;" parent="1" vertex="1">
                    <mxGeometry x="-970" y="240" width="60" height="30" as="geometry"/>
                </mxCell>
                <mxCell id="wmMBdpZO4Sj8BBKznp7j-24" value="&lt;font style=&quot;font-size: 8px;&quot;&gt;edit password&lt;/font&gt;" style="html=1;verticalAlign=bottom;endArrow=block;elbow=vertical;rounded=0;fontSize=19;" parent="1" target="wmMBdpZO4Sj8BBKznp7j-40" edge="1">
                    <mxGeometry width="80" relative="1" as="geometry">
                        <mxPoint x="-132" y="337" as="sourcePoint"/>
                        <mxPoint x="120" y="337" as="targetPoint"/>
                    </mxGeometry>
                </mxCell>
                <mxCell id="wmMBdpZO4Sj8BBKznp7j-28" value="&lt;font size=&quot;1&quot;&gt;edit password&lt;/font&gt;" style="html=1;verticalAlign=bottom;endArrow=block;elbow=vertical;rounded=0;fontSize=19;startArrow=none;" parent="1" source="wmMBdpZO4Sj8BBKznp7j-40" edge="1">
                    <mxGeometry width="80" relative="1" as="geometry">
                        <mxPoint x="120" y="350" as="sourcePoint"/>
                        <mxPoint x="400" y="350" as="targetPoint"/>
                    </mxGeometry>
                </mxCell>
                <mxCell id="wmMBdpZO4Sj8BBKznp7j-30" value="password updated succesfully" style="html=1;verticalAlign=bottom;endArrow=open;dashed=1;endSize=8;edgeStyle=elbowEdgeStyle;elbow=vertical;curved=0;rounded=0;fontSize=13;" parent="1" edge="1">
                    <mxGeometry relative="1" as="geometry">
                        <mxPoint x="-146.5" y="387.18999999999994" as="sourcePoint"/>
                        <mxPoint x="-870" y="387" as="targetPoint"/>
                    </mxGeometry>
                </mxCell>
                <mxCell id="wmMBdpZO4Sj8BBKznp7j-31" value="" style="html=1;points=[];perimeter=orthogonalPerimeter;outlineConnect=0;targetShapes=umlLifeline;portConstraint=eastwest;newEdgeStyle={&quot;edgeStyle&quot;:&quot;elbowEdgeStyle&quot;,&quot;elbow&quot;:&quot;vertical&quot;,&quot;curved&quot;:0,&quot;rounded&quot;:0};fontSize=13;" parent="1" vertex="1">
                    <mxGeometry x="-150" y="240" width="10" height="150" as="geometry"/>
                </mxCell>
                <mxCell id="wmMBdpZO4Sj8BBKznp7j-32" value="" style="html=1;points=[];perimeter=orthogonalPerimeter;outlineConnect=0;targetShapes=umlLifeline;portConstraint=eastwest;newEdgeStyle={&quot;edgeStyle&quot;:&quot;elbowEdgeStyle&quot;,&quot;elbow&quot;:&quot;vertical&quot;,&quot;curved&quot;:0,&quot;rounded&quot;:0};fontSize=13;" parent="1" vertex="1">
                    <mxGeometry x="-140" y="269" width="10" height="71" as="geometry"/>
                </mxCell>
                <mxCell id="wmMBdpZO4Sj8BBKznp7j-33" value="&lt;font style=&quot;font-size: 7px;&quot;&gt;verify requests&lt;/font&gt;" style="html=1;align=left;spacingLeft=2;endArrow=block;rounded=0;edgeStyle=orthogonalEdgeStyle;curved=0;rounded=0;fontSize=13;" parent="1" target="wmMBdpZO4Sj8BBKznp7j-32" edge="1">
                    <mxGeometry relative="1" as="geometry">
                        <mxPoint x="-140" y="279" as="sourcePoint"/>
                        <Array as="points">
                            <mxPoint x="-140" y="250"/>
                            <mxPoint x="-105" y="250"/>
                            <mxPoint x="-105" y="280"/>
                        </Array>
                    </mxGeometry>
                </mxCell>
                <mxCell id="wmMBdpZO4Sj8BBKznp7j-34" value="alt" style="shape=umlFrame;whiteSpace=wrap;html=1;pointerEvents=0;fontSize=8;width=60;height=15;fillColor=#f8cecc;strokeColor=#b85450;" parent="1" vertex="1">
                    <mxGeometry x="-380" y="290" width="500" height="56" as="geometry"/>
                </mxCell>
                <mxCell id="wmMBdpZO4Sj8BBKznp7j-35" value="" style="endArrow=none;dashed=1;html=1;rounded=0;fontSize=8;exitX=-0.001;exitY=0.536;exitDx=0;exitDy=0;exitPerimeter=0;entryX=0.999;entryY=0.5;entryDx=0;entryDy=0;entryPerimeter=0;" parent="1" source="wmMBdpZO4Sj8BBKznp7j-34" target="wmMBdpZO4Sj8BBKznp7j-34" edge="1">
                    <mxGeometry width="50" height="50" relative="1" as="geometry">
                        <mxPoint x="-160" y="400" as="sourcePoint"/>
                        <mxPoint x="-110" y="350" as="targetPoint"/>
                    </mxGeometry>
                </mxCell>
                <mxCell id="wmMBdpZO4Sj8BBKznp7j-36" value="error an input is required" style="html=1;verticalAlign=bottom;endArrow=open;dashed=1;endSize=8;elbow=vertical;rounded=0;fontSize=8;" parent="1" edge="1">
                    <mxGeometry relative="1" as="geometry">
                        <mxPoint x="-150" y="311" as="sourcePoint"/>
                        <mxPoint x="-870" y="310" as="targetPoint"/>
                    </mxGeometry>
                </mxCell>
                <mxCell id="wmMBdpZO4Sj8BBKznp7j-37" value="false" style="text;align=center;fontStyle=1;verticalAlign=middle;spacingLeft=3;spacingRight=3;strokeColor=none;rotatable=0;points=[[0,0.5],[1,0.5]];portConstraint=eastwest;fontSize=8;" parent="1" vertex="1">
                    <mxGeometry x="-350" y="287" width="80" height="26" as="geometry"/>
                </mxCell>
                <mxCell id="wmMBdpZO4Sj8BBKznp7j-38" value="true" style="text;align=center;fontStyle=1;verticalAlign=middle;spacingLeft=3;spacingRight=3;strokeColor=none;rotatable=0;points=[[0,0.5],[1,0.5]];portConstraint=eastwest;fontSize=8;" parent="1" vertex="1">
                    <mxGeometry x="-350" y="320" width="80" height="26" as="geometry"/>
                </mxCell>
                <mxCell id="wmMBdpZO4Sj8BBKznp7j-41" value="" style="html=1;verticalAlign=bottom;endArrow=none;elbow=vertical;rounded=0;fontSize=19;" parent="1" target="wmMBdpZO4Sj8BBKznp7j-40" edge="1">
                    <mxGeometry width="80" relative="1" as="geometry">
                        <mxPoint x="120" y="350" as="sourcePoint"/>
                        <mxPoint x="409.5" y="350" as="targetPoint"/>
                    </mxGeometry>
                </mxCell>
                <mxCell id="wmMBdpZO4Sj8BBKznp7j-40" value="" style="html=1;points=[];perimeter=orthogonalPerimeter;outlineConnect=0;targetShapes=umlLifeline;portConstraint=eastwest;newEdgeStyle={&quot;edgeStyle&quot;:&quot;elbowEdgeStyle&quot;,&quot;elbow&quot;:&quot;vertical&quot;,&quot;curved&quot;:0,&quot;rounded&quot;:0};fontSize=8;" parent="1" vertex="1">
                    <mxGeometry x="115" y="313" width="10" height="77" as="geometry"/>
                </mxCell>
                <mxCell id="wmMBdpZO4Sj8BBKznp7j-29" value="updated" style="html=1;verticalAlign=bottom;endArrow=open;dashed=1;endSize=8;edgeStyle=elbowEdgeStyle;elbow=vertical;curved=0;rounded=0;fontSize=13;" parent="1" edge="1">
                    <mxGeometry relative="1" as="geometry">
                        <mxPoint x="400" y="380" as="sourcePoint"/>
                        <mxPoint x="-140" y="379.75" as="targetPoint"/>
                    </mxGeometry>
                </mxCell>
                <mxCell id="wmMBdpZO4Sj8BBKznp7j-43" value="" style="html=1;points=[];perimeter=orthogonalPerimeter;outlineConnect=0;targetShapes=umlLifeline;portConstraint=eastwest;newEdgeStyle={&quot;edgeStyle&quot;:&quot;elbowEdgeStyle&quot;,&quot;elbow&quot;:&quot;vertical&quot;,&quot;curved&quot;:0,&quot;rounded&quot;:0};fontSize=8;" parent="1" vertex="1">
                    <mxGeometry x="-696" y="130" width="10" height="50" as="geometry"/>
                </mxCell>
                <mxCell id="wmMBdpZO4Sj8BBKznp7j-44" value="" style="html=1;points=[];perimeter=orthogonalPerimeter;outlineConnect=0;targetShapes=umlLifeline;portConstraint=eastwest;newEdgeStyle={&quot;edgeStyle&quot;:&quot;elbowEdgeStyle&quot;,&quot;elbow&quot;:&quot;vertical&quot;,&quot;curved&quot;:0,&quot;rounded&quot;:0};fontSize=8;" parent="1" vertex="1">
                    <mxGeometry x="-885" y="130" width="10" height="280" as="geometry"/>
                </mxCell>
            </root>
        </mxGraphModel>
    </diagram>
</mxfile>